# xmcd CD database file
#
# Track frame offsets:
#	150
#	20654
#	36347
#	45232
#	61933
#	89172
#	100384
#	117978
#	135139
#	150854
#	171252
#	188640
#	212941
#	226629
#	244009
#	263690
#
# Disc length: 3719 seconds
#
# Revision: 0
# Processed by: cddbd v1.5.1PL0 Copyright (c) Steve Scherf et al.
# Submitted via: CDex 1.51
#
DISCID=ca0e8510
DTITLE=Various Artist - Don't Worry 'bout The Bear [CD2]
DYEAR=2003
DGENRE=Blues
TTITLE0=She's in L.A.
TTITLE1=Do It If You Wanna
TTITLE2=Viper Song
TTITLE3=I Wish You Would
TTITLE4=It's My Own Fault
TTITLE5=I've Been Down So Long
TTITLE6=Klickety Klock
TTITLE7=Blues Fell This Morning
TTITLE8=I'll Always Be In Love With You
TTITLE9=Alimony
TTITLE10=Buzzard Luck
TTITLE11=Blues For My Baby
TTITLE12=So Tired
TTITLE13=Let The Good Times Roll
TTITLE14=Honky Tonk
TTITLE15=When A Woman Loves A Man
EXTD=YEAR: 2003
EXTT0=
EXTT1=
EXTT2=
EXTT3=
EXTT4=
EXTT5=
EXTT6=
EXTT7=
EXTT8=
EXTT9=
EXTT10=
EXTT11=
EXTT12=
EXTT13=
EXTT14=
EXTT15=
PLAYORDER=
